<svg width="80" height="52" viewBox="0 0 80 52" fill="none" xmlns="http://www.w3.org/2000/svg">
<path d="M42.2578 37.5664H37.5703V42.2617H46.957V46.957H56.3477V42.2617H51.6484V37.5664H46.957V32.8711H42.2578" fill="white"/>
<path d="M32.8672 28.1758H37.5625V23.4805H32.8672V28.1758Z" fill="white"/>
<path d="M32.8672 46.957H37.5625V42.2617H32.8672V46.957Z" fill="white"/>
<path d="M65.7383 14.0859H70.4375V23.4805H75.1289V18.7812H79.8281V14.0859H75.1289V9.39062H70.4375V4.69922H56.3477V9.39062H65.7383" fill="white"/>
<path d="M46.957 28.1758H56.3477V9.39062H51.6484V4.69922H37.5703V9.39062H46.957" fill="white"/>
<path d="M61.0469 28.1758H70.4375V23.4805H61.0469V28.1758Z" fill="white"/>
<path d="M42.2578 14.0859H37.5703V9.39062H32.8672V18.7812H37.5703V23.4805H42.2578" fill="white"/>
<path d="M65.7383 32.8711V42.2617H70.4375V46.957H75.1289V42.2617H79.8281V37.5664H75.1289V32.8711H70.4375" fill="white"/>
<path d="M14.0898 4.69922H9.38672V9.39062H0V14.0898H9.38672V18.7852H14.0898V14.0898H23.4805V9.39062H14.0898" fill="white"/>
<path d="M4.69922 4.69922H9.39453V0.00390625H4.69922V4.69922Z" fill="white"/>
<path d="M14.0898 32.8711H18.7852V28.1758H14.0898V32.8711Z" fill="white"/>
<path d="M14.0898 4.69922H18.7852V0.00390625H14.0898V4.69922Z" fill="white"/>
<path d="M14.0898 51.6523H18.7852V46.957H14.0898V51.6523Z" fill="white"/>
<path d="M4.69922 51.6523H9.39453V46.957H4.69922V51.6523Z" fill="white"/>
<path d="M14.0898 32.8711H9.38672V37.5664H0V42.2617H9.38672V46.957H14.0898V42.2617H23.4805V37.5664H14.0898" fill="white"/>
<path d="M4.69922 32.8711H9.39453V28.1758H4.69922V32.8711Z" fill="white"/>
<path d="M14.0898 23.4805H18.7852V18.7852H14.0898V23.4805Z" fill="white"/>
<path d="M4.69922 23.4805H9.39453V18.7852H4.69922V23.4805Z" fill="white"/>
<path d="M51.6484 32.8711H56.3438V28.1758H51.6484V32.8711Z" fill="white"/>
<path d="M65.7383 32.8711H75.1289V28.1758H65.7383V32.8711Z" fill="white"/>
</svg>
